<svg width="23" height="30" viewBox="0 0 23 30" fill="none" xmlns="http://www.w3.org/2000/svg">
<path d="M13.125 7.96875V0H1.40625C0.626953 0 0 0.626953 0 1.40625V28.5938C0 29.373 0.626953 30 1.40625 30H21.0938C21.873 30 22.5 29.373 22.5 28.5938V9.375H14.5312C13.7578 9.375 13.125 8.74219 13.125 7.96875ZM17.8125 24V25.125C17.8125 25.7467 17.2248 26.25 16.5 26.25H6C5.2752 26.25 4.6875 25.7461 4.6875 25.125V24C4.6875 22.1361 6.45059 20.625 8.625 20.625H8.91504C9.63516 20.925 10.4227 21.0938 11.25 21.0938C12.0773 21.0938 12.8648 20.925 13.585 20.625H13.875C16.0494 20.625 17.8125 22.1361 17.8125 24V24ZM11.25 18.75C9.17871 18.75 7.5 17.0713 7.5 15C7.5 12.9287 9.17871 11.25 11.25 11.25C13.3213 11.25 15 12.9287 15 15C15 17.0713 13.3213 18.75 11.25 18.75ZM22.0898 6.15234L16.3535 0.410156C16.0898 0.146484 15.7324 0 15.3574 0H15V7.5H22.5V7.14258C22.5 6.77344 22.3535 6.41602 22.0898 6.15234Z" fill="black"/>
</svg>
