<svg width="23" height="30" viewBox="0 0 23 30" fill="none" xmlns="http://www.w3.org/2000/svg">
<path d="M21.0938 0H1.40625C0.626953 0 0 0.626953 0 1.40625V28.5938C0 29.373 0.626953 30 1.40625 30H21.0938C21.873 30 22.5 29.373 22.5 28.5938V1.40625C22.5 0.626953 21.873 0 21.0938 0ZM3.75 6.5625C3.75 6.04687 4.17187 5.625 4.6875 5.625H6.5625C7.07813 5.625 7.5 6.04687 7.5 6.5625V8.4375C7.5 8.95313 7.07813 9.375 6.5625 9.375H4.6875C4.17187 9.375 3.75 8.95313 3.75 8.4375V6.5625ZM3.84375 14.1445L4.58789 13.4063C4.71094 13.2832 4.91016 13.2832 5.0332 13.4063L6.24023 14.625L9.0293 11.8594C9.15234 11.7363 9.35156 11.7363 9.47461 11.8594L10.2129 12.6035C10.3359 12.7266 10.3359 12.9258 10.2129 13.0488L6.45117 16.7754C6.32812 16.8984 6.12891 16.8984 6.00586 16.7754L3.84375 14.5898C3.7207 14.4668 3.7207 14.2676 3.84375 14.1445ZM7.5 23.4375C7.5 23.9531 7.07813 24.375 6.5625 24.375H4.6875C4.17187 24.375 3.75 23.9531 3.75 23.4375V21.5625C3.75 21.0469 4.17187 20.625 4.6875 20.625H6.5625C7.07813 20.625 7.5 21.0469 7.5 21.5625V23.4375ZM18.75 22.9688C18.75 23.2266 18.5391 23.4375 18.2812 23.4375H9.84375C9.58594 23.4375 9.375 23.2266 9.375 22.9688V22.0312C9.375 21.7734 9.58594 21.5625 9.84375 21.5625H18.2812C18.5391 21.5625 18.75 21.7734 18.75 22.0312V22.9688ZM18.75 15.4688C18.75 15.7266 18.498 15.9375 18.1875 15.9375H9.97266C9.97266 15.9375 11.6836 14.168 11.7539 14.0625H18.1816C18.4922 14.0625 18.7441 14.2734 18.7441 14.5312V15.4688H18.75ZM18.75 7.96875C18.75 8.22656 18.5391 8.4375 18.2812 8.4375H9.84375C9.58594 8.4375 9.375 8.22656 9.375 7.96875V7.03125C9.375 6.77344 9.58594 6.5625 9.84375 6.5625H18.2812C18.5391 6.5625 18.75 6.77344 18.75 7.03125V7.96875Z" fill="black"/>
</svg>
