<svg width="30" height="30" viewBox="0 0 30 30" fill="none" xmlns="http://www.w3.org/2000/svg">
<path d="M0.727295 16.1895L14.3761 22.3764C14.7746 22.5568 15.2251 22.5568 15.6236 22.3764L29.273 16.1895C30.2427 15.75 30.2427 14.2852 29.273 13.8457L15.6242 7.65938C15.4283 7.57018 15.2156 7.52402 15.0004 7.52402C14.7852 7.52402 14.5725 7.57018 14.3767 7.65938L0.727295 13.8457C-0.242432 14.2852 -0.242432 15.75 0.727295 16.1895ZM17.8126 3.75H29.0626C29.5806 3.75 30.0001 3.33047 30.0001 2.8125V0.9375C30.0001 0.419531 29.5806 0 29.0626 0H17.8126C17.2947 0 16.8751 0.419531 16.8751 0.9375V2.8125C16.8751 3.33047 17.2947 3.75 17.8126 3.75ZM29.273 21.334L25.8693 19.7912L16.3988 24.0844C15.9558 24.2854 15.4853 24.3873 15.0007 24.3873C14.5162 24.3873 14.0462 24.2854 13.6027 24.0844L4.13159 19.7912L0.727295 21.334C-0.242432 21.7734 -0.242432 23.2383 0.727295 23.6777L14.3761 29.8646C14.7746 30.0451 15.2251 30.0451 15.6236 29.8646L29.273 23.6777C30.2427 23.2383 30.2427 21.7734 29.273 21.334V21.334Z" fill="black"/>
</svg>
