<svg width="51" height="54" viewBox="0 0 51 54" fill="none" xmlns="http://www.w3.org/2000/svg">
<path fill-rule="evenodd" clip-rule="evenodd" d="M27.2663 0.387642L47.5183 8.82596C49.3958 9.60651 50.6299 11.4524 50.6299 13.4987C50.6299 36.8412 36.2953 49.8468 27.2558 53.6124C26.0111 54.1292 24.6083 54.1292 23.3636 53.6124C12.0773 48.908 0 34.4363 0 13.4987C0 11.4524 1.2341 9.60651 3.12218 8.82596L23.3742 0.387642C23.9911 0.131728 24.6524 0 25.3202 0C25.9881 0 26.6494 0.131728 27.2663 0.387642ZM26.6063 19.4852L29.55 27.7471H21.4688L24.3938 19.5224C24.5688 19.0882 24.75 18.5796 24.9375 17.9966C25.1375 17.4011 25.325 16.756 25.5 16.0613C25.675 16.7436 25.8563 17.3763 26.0438 17.9593C26.2437 18.5424 26.4313 19.051 26.6063 19.4852ZM34.6312 38H39L28.3875 11H22.6313L12 38H16.4062C16.8813 38 17.275 37.8759 17.5875 37.6278C17.9 37.3673 18.1187 37.082 18.2437 36.7719L20.0812 31.6175H30.9188L32.7562 36.7719C32.9062 37.1316 33.1312 37.4294 33.4312 37.6651C33.7438 37.8884 34.1437 38 34.6312 38Z" fill="black"/>
</svg>
