<svg width="51" height="54" viewBox="0 0 51 54" fill="none" xmlns="http://www.w3.org/2000/svg">
<path fill-rule="evenodd" clip-rule="evenodd" d="M27.2661 0.387695L47.5181 8.82593C49.396 9.60645 50.6299 11.4524 50.6299 13.4988C50.6299 36.8413 36.2954 49.8467 27.2559 53.6123C26.0112 54.1292 24.6084 54.1292 23.3638 53.6123C12.0771 48.908 0 34.4363 0 13.4988C0 11.4524 1.23389 9.60645 3.12207 8.82593L23.374 0.387695C23.7681 0.224365 24.1807 0.111328 24.6011 0.0510254C24.8389 0.0170898 25.0791 0 25.3203 0C25.9883 0 26.6494 0.131836 27.2661 0.387695ZM13.4028 24.5417L33.7051 15.1719C35.5791 14.3906 37.6094 16.4209 36.8286 18.2954L27.458 38.5969C26.3647 40.9395 22.9292 40.1582 22.9292 37.6599V29.0706H14.3398C11.8413 29.0706 11.0605 25.635 13.4028 24.5417Z" fill="black"/>
</svg>
