<svg width="16" height="16" viewBox="0 0 16 16" fill="none" xmlns="http://www.w3.org/2000/svg">
<path d="M13.7602 9.13225L15.1361 9.92577C15.2933 10.0164 15.3662 10.2038 15.3124 10.3769C14.955 11.5266 14.3448 12.5653 13.5467 13.428C13.487 13.4926 13.407 13.535 13.32 13.5482C13.233 13.5615 13.1441 13.5447 13.0678 13.5008L11.693 12.7074C11.1145 13.2026 10.4494 13.5868 9.73128 13.8406V15.4271C9.73128 15.5151 9.7013 15.6005 9.64628 15.6692C9.59125 15.7379 9.51446 15.7858 9.42854 15.8051C8.29994 16.0583 7.08782 16.0714 5.90227 15.8053C5.72502 15.7656 5.59869 15.6087 5.59869 15.4272V13.8406C4.88052 13.5868 4.21547 13.2026 3.63701 12.7074L2.26214 13.5008C2.1859 13.5447 2.09697 13.5615 2.00995 13.5482C1.92293 13.535 1.84299 13.4926 1.78327 13.428C0.985219 12.5653 0.374978 11.5266 0.0175702 10.3769C-0.0362509 10.2038 0.0366836 10.0164 0.19382 9.92577L1.56976 9.13225C1.43156 8.38374 1.43156 7.61629 1.56976 6.86778L0.193853 6.07426C0.0367159 5.98365 -0.0362186 5.79626 0.0176024 5.62313C0.37501 4.4734 0.985219 3.43469 1.7833 2.57198C1.84303 2.50738 1.92296 2.465 2.00998 2.45179C2.097 2.43857 2.18593 2.45532 2.26217 2.49927L3.63704 3.29266C4.21551 2.79745 4.88056 2.41326 5.59872 2.15943V0.572889C5.59872 0.484898 5.6287 0.399527 5.68372 0.330824C5.73875 0.262122 5.81554 0.214181 5.90147 0.19489C7.03006 -0.0583348 8.24218 -0.0714315 9.42773 0.194665C9.60498 0.234439 9.73131 0.391309 9.73131 0.572825V2.1594C10.4495 2.41321 11.1145 2.7974 11.693 3.29262L13.0679 2.49924C13.1441 2.45529 13.233 2.43854 13.3201 2.45175C13.4071 2.46497 13.487 2.50735 13.5467 2.57195C14.3448 3.43466 14.955 4.47336 15.3124 5.6231C15.3663 5.7962 15.2933 5.98358 15.1362 6.07423L13.7602 6.86774C13.8984 7.61627 13.8984 8.38373 13.7602 9.13225ZM10.2479 8C10.2479 6.57703 9.08921 5.41936 7.665 5.41936C6.24079 5.41936 5.08211 6.57703 5.08211 8C5.08211 9.42296 6.24079 10.5806 7.665 10.5806C9.08921 10.5806 10.2479 9.42296 10.2479 8Z" fill="black"/>
</svg>
