<svg width="16" height="16" viewBox="0 0 16 16" fill="none" xmlns="http://www.w3.org/2000/svg">
<path d="M0.660806 0.660806L2.34355 2.34355C3.79113 0.89571 5.79081 0 7.99997 0C12.4084 0 16.0032 3.59758 16 8.00597C15.9968 12.4215 12.4163 16 8 16C5.93787 16 4.058 15.2198 2.63942 13.9385C2.47448 13.7895 2.46674 13.5333 2.62387 13.3761L3.26058 12.7394C3.40568 12.5943 3.63971 12.585 3.79287 12.7216C4.9101 13.7176 6.38371 14.3226 8 14.3226C11.4942 14.3226 14.3226 11.4948 14.3226 8C14.3226 4.50577 11.4948 1.67742 8 1.67742C6.25281 1.67742 4.67235 2.38461 3.52858 3.52858L5.27464 5.27468C5.51852 5.51855 5.34581 5.93548 5.00094 5.93548H0.387097C0.173323 5.93548 0 5.76216 0 5.54839V0.934548C0 0.589677 0.416968 0.416968 0.660806 0.660806Z" fill="black"/>
</svg>
