<svg width="30" height="30" viewBox="0 0 30 30" fill="none" xmlns="http://www.w3.org/2000/svg">
<path d="M27.8942 4.90386L16.6442 0.216364C16.3014 0.073536 15.9338 0 15.5624 0C15.1911 0 14.8235 0.073536 14.4807 0.216364L3.23074 4.90386C2.7182 5.11742 2.28034 5.47792 1.97234 5.93993C1.66435 6.40193 1.49999 6.94477 1.5 7.50002C1.5 19.1301 8.20868 27.1707 14.4808 29.7837C14.8235 29.9265 15.1912 30 15.5625 30C15.9338 30 16.3015 29.9265 16.6442 29.7837C21.6601 27.694 29.6249 20.4657 29.6249 7.50002C29.6249 6.94476 29.4606 6.40192 29.1526 5.93991C28.8446 5.47791 28.4067 5.11741 27.8942 4.90386V4.90386ZM15.9231 28.0528C15.6915 28.145 15.4334 28.145 15.2018 28.0527C9.46873 25.7812 3.375 17.8125 3.375 7.50002C3.375 7.12034 3.60146 6.78067 3.95191 6.63465L15.2019 1.94716C15.3161 1.89952 15.4387 1.87499 15.5625 1.87499C15.6863 1.87499 15.8088 1.89952 15.9231 1.94716L27.173 6.63465C27.3441 6.70556 27.4902 6.82566 27.5929 6.97972C27.6956 7.13378 27.7503 7.31487 27.75 7.50002C27.75 17.8125 21.6562 25.7812 15.9231 28.0528ZM24.3989 10.5037L13.8239 20.9938C13.5483 21.2673 13.1031 21.2655 12.8296 20.9899L7.7977 15.9173C7.52425 15.6416 7.526 15.1964 7.80169 14.923L8.30091 14.4278C8.57659 14.1543 9.02178 14.1561 9.29524 14.4318L13.3368 18.506L22.9134 9.00617C23.1891 8.73272 23.6343 8.73447 23.9077 9.01016L24.4029 9.50938C24.6764 9.78506 24.6746 10.2303 24.3989 10.5037V10.5037Z" fill="black"/>
</svg>
