<svg width="120" height="120" viewBox="0 0 120 120" fill="none" xmlns="http://www.w3.org/2000/svg">
<path fill-rule="evenodd" clip-rule="evenodd" d="M120 60C120 93.1371 93.1371 120 60 120C26.8629 120 0 93.1371 0 60C0 26.8629 26.8629 0 60 0C93.1371 0 120 26.8629 120 60ZM62.8193 95.4808C74.8819 90.4657 94.0362 73.1178 94.0362 42C94.0362 40.6674 93.641 39.3646 92.9003 38.2558C92.1596 37.147 91.1066 36.2818 89.874 35.7692L62.8195 24.5192C61.9952 24.1765 61.1111 24 60.2181 24C59.3251 24 58.441 24.1765 57.6167 24.5192L30.5621 35.7692C29.3295 36.2817 28.2765 37.1469 27.5358 38.2558C26.7951 39.3646 26.3998 40.6674 26.3998 42C26.3998 69.9122 42.5332 89.2096 57.6166 95.4808C58.4408 95.8235 59.325 96 60.2179 96C61.1109 96 61.9951 95.8235 62.8193 95.4808ZM83.2303 51.8355L57.303 77.7104C56.4226 78.5892 54.9951 78.5892 54.1147 77.7103L39.4601 63.0853C38.5797 62.2067 38.5797 60.782 39.4601 59.9034L42.6485 56.7215C43.529 55.8428 44.9566 55.8428 45.837 56.7215L55.7089 66.5735L76.8535 45.4716C77.734 44.5929 79.1616 44.593 80.042 45.4716L83.2303 48.6535C84.1107 49.5322 84.1107 50.9568 83.2303 51.8355Z" fill="#41BF65"/>
</svg>
