<svg width="33" height="30" viewBox="0 0 33 30" fill="none" xmlns="http://www.w3.org/2000/svg">
<path d="M32.6286 25.782C33.6861 27.6567 32.3587 30 30.2466 30H2.75311C0.636928 30 -0.684332 27.653 0.371094 25.782L14.118 1.40537C15.176 -0.470156 17.8259 -0.466758 18.882 1.40537L32.6286 25.782V25.782ZM16.5 20.7422C15.0445 20.7422 13.8646 21.9489 13.8646 23.4375C13.8646 24.9261 15.0445 26.1328 16.5 26.1328C17.9555 26.1328 19.1354 24.9261 19.1354 23.4375C19.1354 21.9489 17.9555 20.7422 16.5 20.7422ZM13.9979 11.0539L14.4229 19.0227C14.4428 19.3956 14.7443 19.6875 15.1094 19.6875H17.8907C18.2558 19.6875 18.5572 19.3956 18.5771 19.0227L19.0021 11.0539C19.0236 10.6512 18.71 10.3125 18.3156 10.3125H14.6843C14.2899 10.3125 13.9764 10.6512 13.9979 11.0539V11.0539Z" fill="black"/>
</svg>
