<svg width="33" height="30" viewBox="0 0 33 30" fill="none" xmlns="http://www.w3.org/2000/svg">
<path d="M15.3914 9.375H17.4137C17.6074 9.375 17.7613 9.53906 17.7556 9.73828L17.3283 21.2227C17.3226 21.4102 17.1688 21.5625 16.9865 21.5625H15.8186C15.6363 21.5625 15.4825 21.416 15.4768 21.2227L15.0496 9.73828C15.0439 9.53906 15.1977 9.375 15.3914 9.375ZM16.4054 22.7344C15.5224 22.7344 14.8103 23.4668 14.8103 24.375C14.8103 25.2832 15.5224 26.0156 16.4054 26.0156C17.2884 26.0156 18.0005 25.2832 18.0005 24.375C18.0005 23.4668 17.2884 22.7344 16.4054 22.7344ZM32.442 25.7812L18.7753 1.40625C17.7271 -0.46875 15.0894 -0.46875 14.0355 1.40625L0.368763 25.7812C-0.679458 27.6504 0.630818 30 2.73865 30H30.0778C32.1743 30 33.496 27.6562 32.442 25.7812ZM30.0778 28.125H2.73296C2.03224 28.125 1.59359 27.3457 1.94109 26.7188L15.6135 2.34375C15.961 1.72266 16.8441 1.7168 17.1916 2.34375L30.864 26.7188C31.2172 27.3398 30.7786 28.125 30.0778 28.125Z" fill="white"/>
</svg>
