<svg width="30" height="30" viewBox="0 0 30 30" fill="none" xmlns="http://www.w3.org/2000/svg">
<path d="M29.7935 28.2174L22.2352 20.6591C22.1005 20.5244 21.9247 20.4541 21.7372 20.4541H21.1337C23.1434 18.2804 24.3738 15.3801 24.3738 12.1869C24.3738 5.45481 18.919 0 12.1869 0C5.45481 0 0 5.45481 0 12.1869C0 18.919 5.45481 24.3738 12.1869 24.3738C15.3801 24.3738 18.2804 23.1434 20.4541 21.1396V21.7372C20.4541 21.9247 20.5302 22.1005 20.6591 22.2352L28.2174 29.7935C28.4927 30.0688 28.938 30.0688 29.2134 29.7935L29.7935 29.2134C30.0688 28.938 30.0688 28.4927 29.7935 28.2174ZM12.1869 22.4989C6.48601 22.4989 1.87491 17.8878 1.87491 12.1869C1.87491 6.48601 6.48601 1.87491 12.1869 1.87491C17.8878 1.87491 22.4989 6.48601 22.4989 12.1869C22.4989 17.8878 17.8878 22.4989 12.1869 22.4989Z" fill="black"/>
</svg>
