<svg width="35" height="30" viewBox="0 0 35 30" fill="none" xmlns="http://www.w3.org/2000/svg">
<path d="M32.1429 8.57143H2.14286C0.959397 8.57143 0 7.61203 0 6.42857V2.14286C0 0.959397 0.959397 0 2.14286 0H32.1429C33.3263 0 34.2857 0.959397 34.2857 2.14286V6.42857C34.2857 7.61203 33.3263 8.57143 32.1429 8.57143ZM28.9286 2.67857C28.041 2.67857 27.3214 3.3981 27.3214 4.28571C27.3214 5.17333 28.041 5.89286 28.9286 5.89286C29.8162 5.89286 30.5357 5.17333 30.5357 4.28571C30.5357 3.3981 29.8162 2.67857 28.9286 2.67857ZM24.6429 2.67857C23.7552 2.67857 23.0357 3.3981 23.0357 4.28571C23.0357 5.17333 23.7552 5.89286 24.6429 5.89286C25.5305 5.89286 26.25 5.17333 26.25 4.28571C26.25 3.3981 25.5305 2.67857 24.6429 2.67857ZM32.1429 19.2857H2.14286C0.959397 19.2857 0 18.3263 0 17.1429V12.8571C0 11.6737 0.959397 10.7143 2.14286 10.7143H32.1429C33.3263 10.7143 34.2857 11.6737 34.2857 12.8571V17.1429C34.2857 18.3263 33.3263 19.2857 32.1429 19.2857ZM28.9286 13.3929C28.041 13.3929 27.3214 14.1124 27.3214 15C27.3214 15.8876 28.041 16.6071 28.9286 16.6071C29.8162 16.6071 30.5357 15.8876 30.5357 15C30.5357 14.1124 29.8162 13.3929 28.9286 13.3929ZM24.6429 13.3929C23.7552 13.3929 23.0357 14.1124 23.0357 15C23.0357 15.8876 23.7552 16.6071 24.6429 16.6071C25.5305 16.6071 26.25 15.8876 26.25 15C26.25 14.1124 25.5305 13.3929 24.6429 13.3929ZM32.1429 30H2.14286C0.959397 30 0 29.0406 0 27.8571V23.5714C0 22.388 0.959397 21.4286 2.14286 21.4286H32.1429C33.3263 21.4286 34.2857 22.388 34.2857 23.5714V27.8571C34.2857 29.0406 33.3263 30 32.1429 30ZM28.9286 24.1071C28.041 24.1071 27.3214 24.8267 27.3214 25.7143C27.3214 26.6019 28.041 27.3214 28.9286 27.3214C29.8162 27.3214 30.5357 26.6019 30.5357 25.7143C30.5357 24.8267 29.8162 24.1071 28.9286 24.1071ZM24.6429 24.1071C23.7552 24.1071 23.0357 24.8267 23.0357 25.7143C23.0357 26.6019 23.7552 27.3214 24.6429 27.3214C25.5305 27.3214 26.25 26.6019 26.25 25.7143C26.25 24.8267 25.5305 24.1071 24.6429 24.1071Z" fill="black"/>
</svg>
