<svg width="29" height="30" viewBox="0 0 29 30" fill="none" xmlns="http://www.w3.org/2000/svg">
<path d="M28.125 7.50002C28.125 20.4658 20.1601 27.6941 15.1442 29.7837C14.8014 29.9265 14.4338 30 14.0625 30C13.6911 30 13.3235 29.9265 12.9807 29.7837C6.70869 27.1707 0 19.1301 0 7.50002C-9.64041e-07 6.94475 0.164359 6.40191 0.472367 5.93991C0.780374 5.4779 1.21825 5.1174 1.7308 4.90384L12.9808 0.216345C13.3236 0.0735292 13.6912 0 14.0625 0C14.4339 0 14.8015 0.0735292 15.1443 0.216345L26.3943 4.90384C26.9068 5.11741 27.3447 5.47791 27.6527 5.93992C27.9607 6.40192 28.125 6.94476 28.125 7.50002V7.50002ZM12.8504 22.3794L23.6316 11.5981C23.9977 11.232 23.9977 10.6384 23.6316 10.2723L22.3058 8.94652C21.9397 8.58043 21.3461 8.58037 20.98 8.94652L12.1875 17.739L8.08248 13.634C7.71639 13.2679 7.12277 13.2679 6.75662 13.634L5.43082 14.9598C5.06473 15.3259 5.06473 15.9195 5.43082 16.2856L11.5246 22.3793C11.8907 22.7455 12.4843 22.7455 12.8504 22.3794Z" fill="black"/>
</svg>
