<svg width="38" height="30" viewBox="0 0 38 30" fill="none" xmlns="http://www.w3.org/2000/svg">
<path d="M30.1078 11.2226L29.6257 12.0633C29.4494 12.3749 29.0731 12.5043 28.738 12.3808C28.0442 12.1221 27.4093 11.7518 26.8508 11.2873C26.5803 11.0639 26.5098 10.67 26.6862 10.3643L27.1682 9.52354C26.7626 9.05321 26.4451 8.50645 26.2335 7.91265H25.2634C24.9106 7.91265 24.6049 7.65984 24.5461 7.30709C24.4285 6.60159 24.4227 5.86081 24.5461 5.12592C24.6049 4.77317 24.9106 4.51448 25.2634 4.51448H26.2335C26.4451 3.92069 26.7626 3.37392 27.1682 2.90359L26.6862 2.06286C26.5098 1.75715 26.5744 1.36324 26.8508 1.13983C27.4093 0.675378 28.0501 0.304989 28.738 0.0463054C29.0731 -0.0771573 29.4494 0.0521846 29.6257 0.363781L30.1078 1.2045C30.7251 1.0928 31.3542 1.0928 31.9715 1.2045L32.4536 0.363781C32.63 0.0521846 33.0063 -0.0771573 33.3414 0.0463054C34.0351 0.304989 34.6701 0.675378 35.2286 1.13983C35.499 1.36324 35.5696 1.75715 35.3932 2.06286L34.9111 2.90359C35.3168 3.37392 35.6343 3.92069 35.8459 4.51448H36.816C37.1687 4.51448 37.4744 4.76729 37.5332 5.12004C37.6508 5.82554 37.6567 6.56632 37.5332 7.30121C37.4744 7.65396 37.1687 7.91265 36.816 7.91265H35.8459C35.6343 8.50645 35.3168 9.05321 34.9111 9.52354L35.3932 10.3643C35.5696 10.67 35.5049 11.0639 35.2286 11.2873C34.6701 11.7518 34.0292 12.1221 33.3414 12.3808C33.0063 12.5043 32.63 12.3749 32.4536 12.0633L31.9715 11.2226C31.3601 11.3343 30.7251 11.3343 30.1078 11.2226V11.2226ZM29.4905 7.76567C31.754 9.50591 34.335 6.92495 32.5947 4.66146C30.3312 2.91535 27.7503 5.50218 29.4905 7.76567V7.76567ZM22.7118 16.8137L24.6931 17.8014C25.2869 18.1424 25.5456 18.8656 25.3104 19.5123C24.7872 20.935 23.7583 22.2402 22.8059 23.3808C22.3708 23.904 21.6183 24.0334 21.0245 23.6924L19.3137 22.7047C18.373 23.5101 17.2795 24.1509 16.086 24.5684V26.5438C16.086 27.2258 15.598 27.8137 14.9278 27.9313C13.4815 28.1782 11.9647 28.1899 10.4655 27.9313C9.78939 27.8137 9.28966 27.2316 9.28966 26.5438V24.5684C8.09618 24.1451 7.00266 23.5101 6.06199 22.7047L4.35115 23.6865C3.76323 24.0275 3.00481 23.8981 2.56975 23.3749C1.61733 22.2343 0.611987 20.9292 0.0887398 19.5123C-0.146427 18.8714 0.112256 18.1483 0.706054 17.8014L2.66382 16.8137C2.43453 15.585 2.43453 14.321 2.66382 13.0863L0.706054 12.0927C0.112256 11.7518 -0.152307 11.0286 0.0887398 10.3878C0.611987 8.96502 1.61733 7.65984 2.56975 6.51928C3.00481 5.99604 3.75735 5.86669 4.35115 6.20769L6.06199 7.19539C7.00266 6.38994 8.09618 5.74911 9.28966 5.33169V3.3504C9.28966 2.6743 9.77175 2.08638 10.442 1.9688C11.8883 1.72187 13.411 1.71011 14.9102 1.96292C15.5863 2.0805 16.086 2.66254 16.086 3.3504V5.32581C17.2795 5.74911 18.373 6.38406 19.3137 7.18951L21.0245 6.20181C21.6124 5.86081 22.3708 5.99016 22.8059 6.5134C23.7583 7.65396 24.7578 8.95914 25.281 10.3819C25.5162 11.0227 25.2869 11.7459 24.6931 12.0927L22.7118 13.0804C22.9411 14.3151 22.9411 15.5791 22.7118 16.8137V16.8137ZM15.7979 18.0542C19.2784 13.5273 14.1106 8.35947 9.58362 11.8399C6.10314 16.3669 11.2709 21.5347 15.7979 18.0542ZM30.1078 28.7955L29.6257 29.6362C29.4494 29.9478 29.0731 30.0772 28.738 29.9537C28.0442 29.695 27.4093 29.3246 26.8508 28.8602C26.5803 28.6368 26.5098 28.2429 26.6862 27.9371L27.1682 27.0964C26.7626 26.6261 26.4451 26.0793 26.2335 25.4855H25.2634C24.9106 25.4855 24.6049 25.2327 24.5461 24.88C24.4285 24.1745 24.4227 23.4337 24.5461 22.6988C24.6049 22.346 24.9106 22.0874 25.2634 22.0874H26.2335C26.4451 21.4936 26.7626 20.9468 27.1682 20.4765L26.6862 19.6357C26.5098 19.33 26.5744 18.9361 26.8508 18.7127C27.4093 18.2482 28.0501 17.8779 28.738 17.6192C29.0731 17.4957 29.4494 17.6251 29.6257 17.9367L30.1078 18.7774C30.7251 18.6657 31.3542 18.6657 31.9715 18.7774L32.4536 17.9367C32.63 17.6251 33.0063 17.4957 33.3414 17.6192C34.0351 17.8779 34.6701 18.2482 35.2286 18.7127C35.499 18.9361 35.5696 19.33 35.3932 19.6357L34.9111 20.4765C35.3168 20.9468 35.6343 21.4936 35.8459 22.0874H36.816C37.1687 22.0874 37.4744 22.3402 37.5332 22.6929C37.6508 23.3984 37.6567 24.1392 37.5332 24.8741C37.4744 25.2268 37.1687 25.4855 36.816 25.4855H35.8459C35.6343 26.0793 35.3168 26.6261 34.9111 27.0964L35.3932 27.9371C35.5696 28.2429 35.5049 28.6368 35.2286 28.8602C34.6701 29.3246 34.0292 29.695 33.3414 29.9537C33.0063 30.0772 32.63 29.9478 32.4536 29.6362L31.9715 28.7955C31.3601 28.9072 30.7251 28.9072 30.1078 28.7955ZM29.4905 25.3327C31.754 27.0729 34.335 24.4919 32.5947 22.2285C30.3312 20.4882 27.7503 23.0692 29.4905 25.3327V25.3327Z" fill="black"/>
</svg>
