<svg width="30" height="30" viewBox="0 0 30 30" fill="none" xmlns="http://www.w3.org/2000/svg">
<path d="M28.1505 17.6175L26.1781 16.4788C26.3021 15.4968 26.3021 14.5032 26.1781 13.5212L28.1505 12.3825C28.7297 12.0481 29.009 11.3602 28.8186 10.7191C28.1403 8.43589 26.933 6.3807 25.3386 4.6952C24.8769 4.20709 24.14 4.10028 23.5582 4.4362L21.5887 5.57318C20.8009 4.97365 19.9405 4.47615 19.0278 4.09253V1.81749C19.0278 1.1443 18.565 0.559182 17.9099 0.404161C15.633 -0.13469 13.2455 -0.134751 10.9681 0.404161C10.313 0.559182 9.85013 1.14424 9.85013 1.81749V4.09253C8.93751 4.47614 8.07707 4.97364 7.2893 5.57318L5.31982 4.4362C4.7379 4.10028 4.00103 4.20709 3.53935 4.6952C1.945 6.3807 0.737675 8.43595 0.0594078 10.7191C-0.131056 11.3602 0.148319 12.0481 0.727514 12.3825L2.6999 13.5212C2.5759 14.5032 2.5759 15.4968 2.6999 16.4788L0.727514 17.6175C0.148319 17.9519 -0.131056 18.6398 0.0594078 19.2809C0.737675 21.5641 1.945 23.6193 3.53935 25.3048C4.00109 25.7929 4.73796 25.8997 5.31982 25.5639L7.2893 24.4269C8.07706 25.0264 8.9375 25.5239 9.85013 25.9075V28.1825C9.85013 28.8557 10.313 29.4408 10.9681 29.5958C13.245 30.1347 15.6325 30.1347 17.9099 29.5958C18.565 29.4408 19.0278 28.8558 19.0278 28.1825V25.9075C19.9405 25.5239 20.8009 25.0264 21.5887 24.4269L23.5582 25.5639C24.14 25.8998 24.8769 25.793 25.3386 25.3048C26.933 23.6193 28.1403 21.5641 28.8186 19.2809C29.009 18.6398 28.7297 17.9519 28.1505 17.6175V17.6175ZM24.19 23.6938L21.3891 22.0765C19.7567 23.4719 19.1778 23.823 17.0924 24.5599V27.7945C15.3419 28.1556 13.5361 28.1556 11.7856 27.7945V24.5599C9.75208 23.8414 9.16333 23.5078 7.48889 22.0765L4.68794 23.6938C3.4958 22.3577 2.58982 20.7912 2.03094 19.0996L4.8331 17.4822C4.43784 15.3401 4.43766 14.661 4.8331 12.5178L2.03094 10.9004C2.58982 9.20875 3.49586 7.64222 4.68794 6.30552L7.48889 7.92407C9.14476 6.50669 9.73061 6.16611 11.7856 5.44006V2.20549C13.536 1.8438 15.3419 1.8438 17.0924 2.20549V5.44012C19.1475 6.16623 19.7334 6.50687 21.3891 7.92413L24.19 6.30558C25.3821 7.64222 26.2882 9.20875 26.847 10.9005L24.0449 12.5178C24.4402 14.6605 24.4403 15.339 24.0449 17.4823L26.847 19.0996C26.2882 20.7912 25.3822 22.3578 24.19 23.6938V23.6938ZM14.439 9.19357C11.2373 9.19357 8.63253 11.7983 8.63253 15C8.63253 18.2017 11.2373 20.8065 14.439 20.8065C17.6407 20.8065 20.2454 18.2017 20.2454 15C20.2454 11.7983 17.6407 9.19357 14.439 9.19357ZM14.439 18.871C12.3045 18.871 10.568 17.1345 10.568 15C10.568 12.8656 12.3045 11.1291 14.439 11.1291C16.5735 11.1291 18.31 12.8656 18.31 15C18.31 17.1345 16.5735 18.871 14.439 18.871Z" fill="black"/>
</svg>
