<svg width="30" height="30" viewBox="0 0 30 30" fill="none" xmlns="http://www.w3.org/2000/svg">
<path d="M21.9387 7.57742C20.0479 5.80694 17.594 4.83641 14.9908 4.83871C10.3058 4.84282 6.26129 8.05512 5.14458 12.5111C5.06329 12.8355 4.77429 13.0645 4.43988 13.0645H0.973972C0.520464 13.0645 0.175948 12.6528 0.259839 12.2071C1.56853 5.2575 7.67014 0 15 0C19.019 0 22.6688 1.58081 25.3618 4.15433L27.522 1.99415C28.4364 1.0797 30 1.72736 30 3.02063V11.129C30 11.9307 29.3501 12.5806 28.5484 12.5806H20.44C19.1467 12.5806 18.4991 11.0171 19.4135 10.1026L21.9387 7.57742V7.57742ZM1.45161 17.4194H9.56002C10.8533 17.4194 11.5009 18.9829 10.5865 19.8974L8.06129 22.4226C9.95214 24.1932 12.4061 25.1637 15.0094 25.1614C19.692 25.1571 23.7382 21.947 24.8554 17.489C24.9367 17.1647 25.2257 16.9356 25.5601 16.9356H29.0261C29.4796 16.9356 29.8241 17.3473 29.7402 17.793C28.4315 24.7425 22.3299 30 15 30C10.981 30 7.33119 28.4192 4.63821 25.8457L2.47802 28.0058C1.56357 28.9203 0 28.2726 0 26.9794V18.871C0 18.0693 0.649899 17.4194 1.45161 17.4194Z" fill="black"/>
</svg>
