<svg width="120" height="120" viewBox="0 0 120 120" fill="none" xmlns="http://www.w3.org/2000/svg">
<path fill-rule="evenodd" clip-rule="evenodd" d="M60 120C93.1371 120 120 93.1371 120 60C120 26.8629 93.1371 0 60 0C26.8629 0 0 26.8629 0 60C0 93.1371 26.8629 120 60 120ZM92.6704 87.619C97.745 87.619 100.934 82.114 98.3935 77.7101L65.366 20.4443C62.8286 16.0463 56.4619 16.0383 53.9199 20.4443L20.8917 77.7101C18.3559 82.1055 21.5304 87.619 26.6147 87.619H92.6704ZM53.3111 72.2024C53.3111 68.7054 56.146 65.8705 59.643 65.8705C63.1399 65.8705 65.9748 68.7054 65.9748 72.2024C65.9748 75.6993 63.1399 78.5342 59.643 78.5342C56.146 78.5342 53.3111 75.6993 53.3111 72.2024ZM54.6525 61.8311L53.6314 43.1108C53.5798 42.1646 54.333 41.369 55.2806 41.369H64.0052C64.9528 41.369 65.7061 42.1646 65.6545 43.1108L64.6334 61.8311C64.5857 62.7071 63.8614 63.3928 62.9841 63.3928H56.3018C55.4246 63.3928 54.7003 62.7071 54.6525 61.8311Z" fill="#F65710"/>
</svg>
