<svg width="30" height="30" viewBox="0 0 30 30" fill="none" xmlns="http://www.w3.org/2000/svg">
<path d="M29.625 7.50001C29.625 20.4657 21.6601 27.694 16.6442 29.7837C16.3014 29.9265 15.9338 30 15.5625 30C15.1911 30 14.8235 29.9265 14.4807 29.7837C8.20868 27.1707 1.5 19.1301 1.5 7.50001C1.5 6.94474 1.66436 6.4019 1.97237 5.9399C2.28037 5.47789 2.71825 5.1174 3.2308 4.90384L14.4808 0.216345C14.8235 0.0735291 15.1912 0 15.5625 0C15.9338 0 16.3015 0.0735291 16.6442 0.216345L27.8942 4.90384C28.4068 5.11741 28.8446 5.47791 29.1526 5.93991C29.4606 6.40192 29.625 6.94475 29.625 7.50001V7.50001ZM14.3504 22.3793L25.1316 11.5981C25.4977 11.232 25.4977 10.6384 25.1316 10.2723L23.8058 8.94651C23.4397 8.58042 22.8461 8.58036 22.4799 8.94651L13.6875 17.739L9.58247 13.6339C9.21638 13.2679 8.62277 13.2679 8.25661 13.6339L6.93081 14.9597C6.56472 15.3258 6.56472 15.9195 6.93081 16.2855L13.0246 22.3793C13.3906 22.7455 13.9843 22.7455 14.3504 22.3793Z" fill="black"/>
</svg>
