<svg width="100" height="100" viewBox="0 0 100 100" fill="none" xmlns="http://www.w3.org/2000/svg">
<path d="M50 100C77.6142 100 100 77.6142 100 50C100 22.3858 77.6142 0 50 0C22.3858 0 0 22.3858 0 50C0 77.6142 22.3858 100 50 100Z" fill="#253653"/>
<path d="M78.3636 35C78.3636 60.9315 62.4017 75.3881 52.3496 79.5673C51.6627 79.8529 50.9259 80 50.1818 80C49.4376 80 48.7008 79.8529 48.0139 79.5673C35.4445 74.3413 22 58.2602 22 35C22 33.8895 22.3294 32.8038 22.9466 31.8798C23.5639 30.9558 24.4414 30.2348 25.4686 29.8077L48.014 20.4327C48.701 20.1471 49.4377 20 50.1819 20C50.926 20 51.6628 20.1471 52.3497 20.4327L74.8952 29.8077C75.9223 30.2348 76.7998 30.9558 77.417 31.8798C78.0343 32.8038 78.3636 33.8895 78.3636 35ZM47.7527 64.7587L69.3587 43.1962C70.0924 42.464 70.0924 41.2768 69.3587 40.5446L66.7018 37.893C65.9681 37.1608 64.7785 37.1607 64.0447 37.893L46.4242 55.4779L38.1976 47.2679C37.464 46.5357 36.2743 46.5357 35.5405 47.2679L32.8836 49.9195C32.1499 50.6517 32.1499 51.8389 32.8836 52.5711L45.0957 64.7586C45.8294 65.491 47.019 65.491 47.7527 64.7587Z" fill="#19C2E8"/>
</svg>
