<svg width="29" height="29" viewBox="0 0 29 29" fill="none" xmlns="http://www.w3.org/2000/svg">
<path fill-rule="evenodd" clip-rule="evenodd" d="M26.5078 29C27.8842 29 29 27.8842 29 26.5078V20.6172C29 19.2408 27.8842 18.125 26.5078 18.125H19.4844V12.5006H22.4693C24.4857 12.5006 25.4996 10.0594 24.0723 8.63203L16.1029 0.662695C15.2137 -0.220898 13.7807 -0.220898 12.8971 0.662695L4.92773 8.63203C3.50605 10.0594 4.51426 12.5006 6.53066 12.5006H9.51562V18.125H2.49219C1.11582 18.125 0 19.2408 0 20.6172V26.5078C0 27.8842 1.11582 29 2.49219 29H26.5078ZM20.8438 23.3359C20.2207 23.3359 19.7109 23.8457 19.7109 24.4688C19.7109 25.0918 20.2207 25.6016 20.8438 25.6016C21.4668 25.6016 21.9766 25.0918 21.9766 24.4688C21.9766 23.8457 21.4668 23.3359 20.8438 23.3359ZM25.6016 24.4688C25.6016 25.0918 25.0918 25.6016 24.4688 25.6016C23.8457 25.6016 23.3359 25.0918 23.3359 24.4688C23.3359 23.8457 23.8457 23.3359 24.4688 23.3359C25.0918 23.3359 25.6016 23.8457 25.6016 24.4688ZM11.3281 10.6881V21.2969C11.3281 21.5461 11.532 21.75 11.7813 21.75H17.2188C17.468 21.75 17.6719 21.5461 17.6719 21.2969V10.6881H22.4694C22.8715 10.6881 23.0754 10.201 22.7922 9.9121L14.8229 1.94277C14.6473 1.76718 14.3584 1.76718 14.1828 1.94277L6.21349 9.9121C5.93029 10.1953 6.12853 10.6881 6.53634 10.6881H11.3281ZM26.5078 19.9375C26.8816 19.9375 27.1875 20.2434 27.1875 20.6172V26.5078C27.1875 26.8816 26.8816 27.1875 26.5078 27.1875H2.49219C2.11836 27.1875 1.8125 26.8816 1.8125 26.5078V20.6172C1.8125 20.2434 2.11836 19.9375 2.49219 19.9375H9.51562V21.2969C9.51562 22.5486 10.5295 23.5625 11.7812 23.5625H17.2188C18.4705 23.5625 19.4844 22.5486 19.4844 21.2969V19.9375H26.5078Z" fill="black"/>
</svg>
