<svg width="48" height="54" viewBox="0 0 48 54" fill="none" xmlns="http://www.w3.org/2000/svg">
<path d="M42.2035 23.625H39.6713V16.0312C39.6713 7.19297 32.4756 0 23.634 0C14.7923 0 7.59663 7.19297 7.59663 16.0312V23.625H5.06442C2.26844 23.625 0 25.8926 0 28.6875V48.9375C0 51.7324 2.26844 54 5.06442 54H42.2035C44.9995 54 47.2679 51.7324 47.2679 48.9375V28.6875C47.2679 25.8926 44.9995 23.625 42.2035 23.625ZM27.8543 41.3438C27.8543 43.6746 25.9657 45.5625 23.634 45.5625C21.3022 45.5625 19.4136 43.6746 19.4136 41.3438V36.2812C19.4136 33.9504 21.3022 32.0625 23.634 32.0625C25.9657 32.0625 27.8543 33.9504 27.8543 36.2812V41.3438ZM31.2306 23.625H16.0373V16.0312C16.0373 11.8441 19.4453 8.4375 23.634 8.4375C27.8226 8.4375 31.2306 11.8441 31.2306 16.0312V23.625Z" fill="black"/>
</svg>
