<svg width="54" height="35" viewBox="0 0 54 35" fill="none" xmlns="http://www.w3.org/2000/svg">
<path d="M53.3769 14.9654C48.0908 5.99521 38.2322 0 27 0C15.7631 0 5.90666 5.99943 0.623106 14.9654C0.215152 15.6576 0 16.4465 0 17.25C0 18.0535 0.215152 18.8424 0.623106 19.5347C5.90919 28.5047 15.7678 34.4999 27 34.4999C38.2369 34.4999 48.0933 28.5005 53.3769 19.5346C53.7849 18.8423 54 18.0535 54 17.25C54 16.4465 53.7849 15.6576 53.3769 14.9654ZM27 30C19.9536 30 14.25 24.2974 14.25 17.25C14.25 10.2035 19.9524 4.49999 27 4.49999C34.0464 4.49999 39.75 10.2024 39.75 17.25C39.75 24.2964 34.0476 30 27 30ZM36.75 17.25C36.75 22.6348 32.3848 27 27 27C21.6152 27 17.25 22.6348 17.25 17.25C17.25 15.5898 17.6654 14.0269 18.3971 12.6588L18.397 12.6618C18.397 14.879 20.1945 16.6764 22.4118 16.6764C24.6291 16.6764 26.4265 14.8789 26.4265 12.6618C26.4265 10.4445 24.6291 8.64702 22.4118 8.64702L22.4088 8.64711C23.777 7.91539 25.3399 7.49999 27 7.49999C32.3848 7.49999 36.75 11.8652 36.75 17.25Z" fill="black"/>
</svg>
