<svg width="26" height="13" viewBox="0 0 26 13" fill="none" xmlns="http://www.w3.org/2000/svg">
<path fill-rule="evenodd" clip-rule="evenodd" d="M2 0C0.895431 0 0 0.89543 0 2V11C0 12.1046 0.89543 13 2 13H24C25.1046 13 26 12.1046 26 11V2C26 0.895431 25.1046 0 24 0H2ZM6.76 6.44C6.55 6.51333 6.30667 6.55 6.03 6.55H4.88V3.6H6.03C6.60333 3.6 7.03 3.72833 7.31 3.985C7.59333 4.24167 7.735 4.59833 7.735 5.055C7.735 5.275 7.69833 5.47667 7.625 5.66C7.55167 5.84333 7.44167 6.00167 7.295 6.135C7.15167 6.265 6.97333 6.36667 6.76 6.44ZM7.21 2.995C6.87667 2.88833 6.48333 2.835 6.03 2.835H3.915V10H4.88V7.32H6.03C6.46333 7.32 6.845 7.265 7.175 7.155C7.50833 7.04167 7.78667 6.885 8.01 6.685C8.23667 6.485 8.40833 6.24667 8.525 5.97C8.64167 5.69333 8.7 5.38833 8.7 5.055C8.7 4.71833 8.645 4.41333 8.535 4.14C8.42833 3.86667 8.265 3.63333 8.045 3.44C7.825 3.24667 7.54667 3.09833 7.21 2.995ZM12.6459 6.205C12.4325 6.27167 12.1859 6.305 11.9059 6.305H10.8859V3.6H11.9459C12.5059 3.6 12.9259 3.70833 13.2059 3.925C13.4859 4.14167 13.6259 4.46333 13.6259 4.89C13.6259 5.1 13.5892 5.29167 13.5159 5.465C13.4425 5.63833 13.3325 5.78833 13.1859 5.915C13.0425 6.03833 12.8625 6.135 12.6459 6.205ZM14.3559 10H15.2159L13.1259 7.155C13.0359 7.02167 12.9292 6.92 12.8059 6.85C13.0825 6.78667 13.3292 6.69333 13.5459 6.57C13.7659 6.44667 13.9509 6.29833 14.1009 6.125C14.2542 5.94833 14.3709 5.75 14.4509 5.53C14.5309 5.31 14.5709 5.07333 14.5709 4.82C14.5709 4.51667 14.5192 4.24333 14.4159 4C14.3125 3.75333 14.1525 3.54333 13.9359 3.37C13.7225 3.19667 13.4509 3.065 13.1209 2.975C12.7909 2.88167 12.3992 2.835 11.9459 2.835H9.92086V10H10.8859V7.01H11.6209C11.7575 7.01 11.8575 7.02833 11.9209 7.065C11.9875 7.09833 12.0492 7.155 12.1059 7.235L13.9659 9.795C14.0492 9.93167 14.1792 10 14.3559 10ZM22.487 7.9C22.657 7.45 22.742 6.95667 22.742 6.42C22.742 5.88333 22.657 5.39167 22.487 4.945C22.317 4.495 22.077 4.10833 21.767 3.785C21.457 3.45833 21.0837 3.205 20.647 3.025C20.2137 2.845 19.7337 2.755 19.207 2.755C18.6804 2.755 18.2004 2.845 17.767 3.025C17.3337 3.205 16.962 3.45833 16.652 3.785C16.342 4.10833 16.102 4.495 15.932 4.945C15.762 5.39167 15.677 5.88333 15.677 6.42C15.677 6.95667 15.762 7.45 15.932 7.9C16.102 8.34667 16.342 8.73167 16.652 9.055C16.962 9.37833 17.3337 9.63 17.767 9.81C18.2004 9.98667 18.6804 10.075 19.207 10.075C19.7337 10.075 20.2137 9.98667 20.647 9.81C21.0837 9.63 21.457 9.37833 21.767 9.055C22.077 8.73167 22.317 8.34667 22.487 7.9ZM21.567 5.235C21.687 5.585 21.747 5.98 21.747 6.42C21.747 6.86 21.687 7.255 21.567 7.605C21.447 7.95167 21.277 8.24667 21.057 8.49C20.837 8.73 20.5704 8.915 20.257 9.045C19.9437 9.17167 19.5937 9.235 19.207 9.235C18.8237 9.235 18.4754 9.17167 18.162 9.045C17.8487 8.915 17.5804 8.73 17.357 8.49C17.137 8.24667 16.967 7.95167 16.847 7.605C16.727 7.255 16.667 6.86 16.667 6.42C16.667 5.98 16.727 5.585 16.847 5.235C16.967 4.885 17.137 4.59 17.357 4.35C17.5804 4.10667 17.8487 3.92 18.162 3.79C18.4754 3.66 18.8237 3.595 19.207 3.595C19.5937 3.595 19.9437 3.66 20.257 3.79C20.5704 3.92 20.837 4.10667 21.057 4.35C21.277 4.59 21.447 4.885 21.567 5.235Z" fill="black"/>
</svg>
