<svg width="48" height="54" viewBox="0 0 48 54" fill="none" xmlns="http://www.w3.org/2000/svg">
<path d="M42.3701 27.0001H16.1006V16.1262C16.1006 11.9497 19.4585 8.47978 23.6531 8.43759C27.8901 8.3954 31.3539 11.8231 31.3539 16.0313V17.7188C31.3539 19.1216 32.4873 20.2501 33.8961 20.2501H37.2857C38.6945 20.2501 39.8279 19.1216 39.8279 17.7188V16.0313C39.8279 7.17197 32.572 -0.0315367 23.6743 0.000103836C14.7766 0.0317444 7.62662 7.33017 7.62662 16.1895V27.0001H5.08442C2.27739 27.0001 0 29.2676 0 32.0625V48.9375C0 51.7324 2.27739 54 5.08442 54H42.3701C45.1771 54 47.4545 51.7324 47.4545 48.9375V32.0625C47.4545 29.2676 45.1771 27.0001 42.3701 27.0001ZM27.9643 43.0313C27.9643 45.3621 26.0682 47.25 23.7273 47.25C21.3863 47.25 19.4903 45.3621 19.4903 43.0313V37.9688C19.4903 35.6379 21.3863 33.75 23.7273 33.75C26.0682 33.75 27.9643 35.6379 27.9643 37.9688V43.0313Z" fill="black"/>
</svg>
