<svg width="21" height="30" viewBox="0 0 21 30" fill="none" xmlns="http://www.w3.org/2000/svg">
<path d="M19.1518 8.10268H12.5223V1.47321C12.5223 0.659724 11.8626 0 11.0491 0H9.57589C8.7624 0 8.10268 0.659724 8.10268 1.47321V8.10268H1.47321C0.659724 8.10268 0 8.7624 0 9.57589V11.0491C0 11.8626 0.659724 12.5223 1.47321 12.5223H8.10268V19.1518C8.10268 19.9653 8.7624 20.625 9.57589 20.625H11.0491C11.8626 20.625 12.5223 19.9653 12.5223 19.1518V12.5223H19.1518C19.9653 12.5223 20.625 11.8626 20.625 11.0491V9.57589C20.625 8.7624 19.9653 8.10268 19.1518 8.10268Z" fill="black"/>
<path d="M19.1518 25.3125H1.47321C0.659724 25.3125 0 26.0122 0 26.875V28.4375C0 29.3003 0.659724 30 1.47321 30H19.1518C19.9653 30 20.625 29.3003 20.625 28.4375V26.875C20.625 26.0122 19.9653 25.3125 19.1518 25.3125Z" fill="black"/>
</svg>
