<svg width="33" height="30" viewBox="0 0 33 30" fill="none" xmlns="http://www.w3.org/2000/svg">
<path d="M29.5924 0H2.69022C1.20499 0 0 1.25977 0 2.8125V19.6875C0 21.2402 1.20499 22.5 2.69022 22.5H13.4511L12.106 28.125H8.07065C7.57745 28.125 7.17391 28.5469 7.17391 29.0625C7.17391 29.5781 7.57745 30 8.07065 30H24.212C24.7052 30 25.1087 29.5781 25.1087 29.0625C25.1087 28.5469 24.7052 28.125 24.212 28.125H20.1766L18.8315 22.5H29.5924C31.0776 22.5 32.2826 21.2402 32.2826 19.6875V2.8125C32.2826 1.25977 31.0776 0 29.5924 0ZM13.9555 28.125L14.8522 24.375H17.4304L18.3271 28.125H13.9555ZM30.4891 19.6875C30.4891 20.2031 30.0856 20.625 29.5924 20.625H2.69022C2.19701 20.625 1.79348 20.2031 1.79348 19.6875V2.8125C1.79348 2.29687 2.19701 1.875 2.69022 1.875H29.5924C30.0856 1.875 30.4891 2.29687 30.4891 2.8125V19.6875Z" fill="black"/>
</svg>
