<svg width="46" height="30" viewBox="0 0 46 30" fill="none" xmlns="http://www.w3.org/2000/svg">
<path d="M10.7143 8.57143C10.7143 10.9353 8.79241 12.8571 6.42857 12.8571C4.06473 12.8571 2.14286 10.9353 2.14286 8.57143C2.14286 6.20759 4.06473 4.28571 6.42857 4.28571C8.79241 4.28571 10.7143 6.20759 10.7143 8.57143Z" fill="black"/>
<path d="M28.9286 7.5C28.9286 11.6451 25.5737 15 21.4286 15C17.2835 15 13.9286 11.6451 13.9286 7.5C13.9286 3.35491 17.2835 0 21.4286 0C25.5737 0 28.9286 3.35491 28.9286 7.5Z" fill="black"/>
<path d="M26.0156 17.1429H26.5714C30.8304 17.1429 34.2857 20.5982 34.2857 24.8571V26.7857C34.2857 28.5603 32.846 30 31.0714 30H11.7857C10.0112 30 8.57143 28.5603 8.57143 26.7857V24.8571C8.57143 20.5982 12.0268 17.1429 16.2857 17.1429H16.8415C18.2411 17.8125 19.7812 18.2143 21.4286 18.2143C23.0759 18.2143 24.6228 17.8125 26.0156 17.1429Z" fill="black"/>
<path d="M8.57143 15C9.75 15 10.8147 15.4754 11.5915 16.2455C8.89286 17.7254 6.97768 20.3973 6.5558 23.5714H2.14286C0.957589 23.5714 0 22.6138 0 21.4286V19.2857C0 16.9219 1.92188 15 4.28571 15H8.57143Z" fill="black"/>
<path d="M43.6719 7.70508L45.3008 9.35157C45.5703 9.6211 45.5645 10.0606 45.2949 10.3359L37.0156 18.5508C36.7402 18.8203 36.3008 18.8203 36.0313 18.5449L31.2441 13.7227C30.9746 13.4473 30.9746 13.0078 31.25 12.7383L32.8965 11.1035C33.1719 10.834 33.6113 10.834 33.8809 11.1094L36.5469 13.793L42.6875 7.69922C42.9629 7.42969 43.4023 7.42969 43.6719 7.70508Z" fill="black"/>
</svg>
