<svg width="31" height="30" viewBox="0 0 31 30" fill="none" xmlns="http://www.w3.org/2000/svg">
<path d="M26.1987 6.56122C24.1947 6.59052 22.5481 8.22537 22.5071 10.2294C22.4778 11.6533 23.2396 12.9014 24.3822 13.5577V20.1557C24.3822 23.5133 21.4406 26.2498 17.8193 26.2498C14.3035 26.2498 11.4205 23.6657 11.2623 20.437C15.5282 19.558 18.751 15.7727 18.751 11.249V2.14301C18.751 1.47501 18.2764 0.894896 17.6201 0.765983L13.9344 0.0276612C13.1726 -0.124691 12.4343 0.367523 12.2819 1.12928L12.0944 2.04926C11.9421 2.81102 12.4343 3.54934 13.196 3.70169L14.995 4.05913V11.1728C14.995 14.2726 12.5222 16.8391 9.42239 16.8684C6.29331 16.8977 3.74435 14.3663 3.74435 11.2431V4.06499L5.54327 3.70755C6.30503 3.5552 6.79725 2.81688 6.64489 2.05512L6.46324 1.13514C6.31089 0.373383 5.57257 -0.118831 4.81081 0.0335209L1.13092 0.760123C0.474635 0.894896 0 1.46915 0 2.14301V11.249C0 15.7785 3.22869 19.5697 7.50627 20.437C7.65862 25.7341 12.2233 30 17.8135 30C23.4974 30 28.1265 25.5818 28.1265 20.1557V13.5577C29.2457 12.9073 30.0016 11.7002 30.0016 10.3114C30.0016 8.21951 28.2906 6.53192 26.1987 6.56122ZM26.2514 11.249C25.7358 11.249 25.3139 10.8271 25.3139 10.3114C25.3139 9.79577 25.7358 9.37387 26.2514 9.37387C26.7671 9.37387 27.189 9.79577 27.189 10.3114C27.189 10.8271 26.7671 11.249 26.2514 11.249Z" fill="black"/>
</svg>
