<svg width="38" height="30" viewBox="0 0 38 30" fill="none" xmlns="http://www.w3.org/2000/svg">
<path d="M35.7715 21.873C35.9238 21.0469 35.9238 20.2031 35.7715 19.377L37.2832 18.5039C37.459 18.4043 37.5352 18.1992 37.4766 18.0059C37.084 16.7402 36.4102 15.5918 35.5313 14.6426C35.3965 14.4961 35.1797 14.4609 35.0039 14.5605L33.4922 15.4336C32.8535 14.8887 32.1211 14.4668 31.3301 14.1855V12.4395C31.3301 12.2402 31.1895 12.0645 30.9961 12.0234C29.6895 11.7305 28.3594 11.7422 27.1172 12.0234C26.9238 12.0645 26.7832 12.2402 26.7832 12.4395V14.1855C25.9922 14.4668 25.2598 14.8887 24.6211 15.4336L23.1094 14.5605C22.9395 14.4609 22.7168 14.4961 22.582 14.6426C21.7031 15.5918 21.0293 16.7402 20.6367 18.0059C20.5781 18.1992 20.6602 18.4043 20.8301 18.5039L22.3418 19.377C22.1895 20.2031 22.1895 21.0469 22.3418 21.873L20.8301 22.7461C20.6543 22.8457 20.5781 23.0508 20.6367 23.2441C21.0293 24.5098 21.7031 25.6523 22.582 26.6074C22.7168 26.7539 22.9336 26.7891 23.1094 26.6895L24.6211 25.8164C25.2598 26.3613 25.9922 26.7832 26.7832 27.0645V28.8105C26.7832 29.0098 26.9238 29.1855 27.1172 29.2266C28.4238 29.5195 29.7539 29.5078 30.9961 29.2266C31.1895 29.1855 31.3301 29.0098 31.3301 28.8105V27.0645C32.1211 26.7832 32.8535 26.3613 33.4922 25.8164L35.0039 26.6895C35.1738 26.7891 35.3965 26.7539 35.5313 26.6074C36.4102 25.6582 37.084 24.5098 37.4766 23.2441C37.5352 23.0508 37.4531 22.8457 37.2832 22.7461L35.7715 21.873V21.873ZM29.0625 23.4668C27.4922 23.4668 26.2207 22.1895 26.2207 20.625C26.2207 19.0605 27.498 17.7832 29.0625 17.7832C30.627 17.7832 31.9043 19.0605 31.9043 20.625C31.9043 22.1895 30.6328 23.4668 29.0625 23.4668ZM13.125 15C17.2676 15 20.625 11.6426 20.625 7.5C20.625 3.35742 17.2676 0 13.125 0C8.98242 0 5.625 3.35742 5.625 7.5C5.625 11.6426 8.98242 15 13.125 15ZM24.9141 28.2715C24.7793 28.2012 24.6445 28.1191 24.5156 28.043L24.0527 28.3125C23.7012 28.5117 23.3027 28.623 22.9043 28.623C22.2656 28.623 21.6504 28.3535 21.2109 27.8848C20.1387 26.7246 19.3184 25.3125 18.8555 23.8066C18.5332 22.7695 18.9668 21.6738 19.9043 21.1289L20.3672 20.8594C20.3613 20.707 20.3613 20.5547 20.3672 20.4023L19.9043 20.1328C18.9668 19.5938 18.5332 18.4922 18.8555 17.4551C18.9082 17.2852 18.9844 17.1152 19.043 16.9453C18.8203 16.9277 18.6035 16.875 18.375 16.875H17.3965C16.0957 17.4727 14.6484 17.8125 13.125 17.8125C11.6016 17.8125 10.1602 17.4727 8.85352 16.875H7.875C3.52734 16.875 0 20.4023 0 24.75V27.1875C0 28.7402 1.25977 30 2.8125 30H23.4375C24.0293 30 24.5801 29.8125 25.0313 29.502C24.9609 29.2793 24.9141 29.0508 24.9141 28.8105V28.2715Z" fill="black"/>
</svg>
