<svg width="30" height="30" viewBox="0 0 30 30" fill="none" xmlns="http://www.w3.org/2000/svg">
<path d="M30 10.3126C30 16.008 25.3829 20.625 19.6875 20.625C19.0301 20.625 18.3873 20.5628 17.764 20.4452L16.3571 22.028C16.2252 22.1765 16.0633 22.2953 15.8821 22.3766C15.701 22.458 15.5046 22.5 15.306 22.5H13.125V24.8438C13.125 25.6204 12.4954 26.25 11.7188 26.25H9.375V28.5938C9.375 29.3704 8.74541 30 7.96875 30H1.40625C0.62959 30 0 29.3704 0 28.5938V24.02C0 23.647 0.148184 23.2893 0.411855 23.0256L9.89244 13.545C9.55711 12.5282 9.375 11.4417 9.375 10.3125C9.375 4.61707 13.992 5.85943e-05 19.6874 5.59721e-10C25.3997 -5.85932e-05 30 4.60025 30 10.3126ZM19.6875 7.5C19.6875 9.05332 20.9467 10.3125 22.5 10.3125C24.0533 10.3125 25.3125 9.05332 25.3125 7.5C25.3125 5.94668 24.0533 4.6875 22.5 4.6875C20.9467 4.6875 19.6875 5.94668 19.6875 7.5Z" fill="black"/>
</svg>
