<svg width="18" height="18" viewBox="0 0 18 18" fill="none" xmlns="http://www.w3.org/2000/svg">
<path d="M16.0714 18H1.92857C0.863437 18 0 17.1366 0 16.0714V1.92857C0 0.863437 0.863437 0 1.92857 0H16.0714C17.1366 0 18 0.863437 18 1.92857V16.0714C18 17.1366 17.1366 18 16.0714 18ZM7.84744 14.0601L15.2403 6.66727C15.4913 6.41624 15.4913 6.00919 15.2403 5.75815L14.3312 4.84903C14.0801 4.598 13.6731 4.59796 13.422 4.84903L7.39286 10.8781L4.57799 8.06328C4.32695 7.81224 3.9199 7.81224 3.66883 8.06328L2.75971 8.9724C2.50867 9.22343 2.50867 9.63048 2.75971 9.88152L6.93828 14.0601C7.18935 14.3112 7.59636 14.3112 7.84744 14.0601Z" fill="#18BDE4"/>
</svg>
