<svg width="18" height="18" viewBox="0 0 18 18" fill="none" xmlns="http://www.w3.org/2000/svg">
<rect width="18" height="18" rx="2" fill="#055598"/>
<path d="M7.23836 13.4066L3.21649 9.38471C3.10039 9.26866 3.03516 9.11124 3.03516 8.94709C3.03516 8.78293 3.10039 8.62551 3.21649 8.50946L4.09174 7.63421C4.20778 7.51811 4.36521 7.45288 4.52936 7.45288C4.69351 7.45288 4.85094 7.51811 4.96699 7.63421L7.67599 10.3432L13.4787 4.54046C13.5948 4.42436 13.7522 4.35913 13.9164 4.35913C14.0805 4.35913 14.2379 4.42436 14.354 4.54046L15.2292 5.41571C15.3453 5.53176 15.4106 5.68918 15.4106 5.85334C15.4106 6.01749 15.3453 6.17491 15.2292 6.29096L8.11361 13.4066C7.99757 13.5227 7.84014 13.5879 7.67599 13.5879C7.51183 13.5879 7.35441 13.5227 7.23836 13.4066Z" fill="white"/>
</svg>
