<svg width="18" height="18" viewBox="0 0 18 18" fill="none" xmlns="http://www.w3.org/2000/svg">
<path opacity="0.203683" fill-rule="evenodd" clip-rule="evenodd" d="M1.92857 0H16.0714C17.1362 0 18 0.863839 18 1.92857V16.0714C18 17.1362 17.1362 18 16.0714 18H1.92857C0.863839 18 0 17.1362 0 16.0714V1.92857C0 0.863839 0.863839 0 1.92857 0ZM3.21429 10.125C3.21429 10.3902 3.43125 10.6072 3.69643 10.6072H14.3036C14.5688 10.6072 14.7857 10.3902 14.7857 10.125V7.87501C14.7857 7.60983 14.5688 7.39287 14.3036 7.39287H3.69643C3.43125 7.39287 3.21429 7.60983 3.21429 7.87501V10.125Z" fill="#272626"/>
</svg>
