<svg width="44" height="15" viewBox="0 0 44 15" fill="none" xmlns="http://www.w3.org/2000/svg">
<path d="M27.064 3.402V12H25.9V8.088H21.262V12H20.098V3.402H21.262V7.236H25.9V3.402H27.064ZM32.8906 8.298C32.8906 8.05 32.8546 7.824 32.7826 7.62C32.7146 7.412 32.6126 7.234 32.4766 7.086C32.3446 6.934 32.1826 6.818 31.9906 6.738C31.7986 6.654 31.5806 6.612 31.3366 6.612C30.8246 6.612 30.4186 6.762 30.1186 7.062C29.8226 7.358 29.6386 7.77 29.5666 8.298H32.8906ZM33.7546 11.148C33.6226 11.308 33.4646 11.448 33.2806 11.568C33.0966 11.684 32.8986 11.78 32.6866 11.856C32.4786 11.932 32.2626 11.988 32.0386 12.024C31.8146 12.064 31.5926 12.084 31.3726 12.084C30.9526 12.084 30.5646 12.014 30.2086 11.874C29.8566 11.73 29.5506 11.522 29.2906 11.25C29.0346 10.974 28.8346 10.634 28.6906 10.23C28.5466 9.826 28.4746 9.362 28.4746 8.838C28.4746 8.414 28.5386 8.018 28.6666 7.65C28.7986 7.282 28.9866 6.964 29.2306 6.696C29.4746 6.424 29.7726 6.212 30.1246 6.06C30.4766 5.904 30.8726 5.826 31.3126 5.826C31.6766 5.826 32.0126 5.888 32.3206 6.012C32.6326 6.132 32.9006 6.308 33.1246 6.54C33.3526 6.768 33.5306 7.052 33.6586 7.392C33.7866 7.728 33.8506 8.112 33.8506 8.544C33.8506 8.712 33.8326 8.824 33.7966 8.88C33.7606 8.936 33.6926 8.964 33.5926 8.964H29.5306C29.5426 9.348 29.5946 9.682 29.6866 9.966C29.7826 10.25 29.9146 10.488 30.0826 10.68C30.2506 10.868 30.4506 11.01 30.6826 11.106C30.9146 11.198 31.1746 11.244 31.4626 11.244C31.7306 11.244 31.9606 11.214 32.1526 11.154C32.3486 11.09 32.5166 11.022 32.6566 10.95C32.7966 10.878 32.9126 10.812 33.0046 10.752C33.1006 10.688 33.1826 10.656 33.2506 10.656C33.3386 10.656 33.4066 10.69 33.4546 10.758L33.7546 11.148ZM36.2664 3.162V12H35.1984V3.162H36.2664ZM39.0723 10.536C39.2683 10.8 39.4823 10.986 39.7143 11.094C39.9463 11.202 40.2063 11.256 40.4943 11.256C41.0623 11.256 41.4983 11.054 41.8023 10.65C42.1063 10.246 42.2583 9.67 42.2583 8.922C42.2583 8.526 42.2223 8.186 42.1503 7.902C42.0823 7.618 41.9823 7.386 41.8503 7.206C41.7183 7.022 41.5563 6.888 41.3643 6.804C41.1723 6.72 40.9543 6.678 40.7103 6.678C40.3623 6.678 40.0563 6.758 39.7923 6.918C39.5323 7.078 39.2923 7.304 39.0723 7.596V10.536ZM39.0183 6.864C39.2743 6.548 39.5703 6.294 39.9063 6.102C40.2423 5.91 40.6263 5.814 41.0583 5.814C41.4103 5.814 41.7283 5.882 42.0123 6.018C42.2963 6.15 42.5383 6.348 42.7383 6.612C42.9383 6.872 43.0923 7.196 43.2003 7.584C43.3083 7.972 43.3623 8.418 43.3623 8.922C43.3623 9.37 43.3023 9.788 43.1823 10.176C43.0623 10.56 42.8883 10.894 42.6603 11.178C42.4363 11.458 42.1603 11.68 41.8323 11.844C41.5083 12.004 41.1423 12.084 40.7343 12.084C40.3623 12.084 40.0423 12.022 39.7743 11.898C39.5103 11.77 39.2763 11.594 39.0723 11.37V14.058H37.9983V5.922H38.6403C38.7923 5.922 38.8863 5.996 38.9223 6.144L39.0183 6.864Z" fill="white"/>
<path d="M7 9.37097C6.56352 9.37097 6.20968 9.72481 6.20968 10.1613C6.20968 10.5978 6.56352 10.9516 7 10.9516C7.43648 10.9516 7.79032 10.5978 7.79032 10.1613C7.79032 9.72481 7.43648 9.37097 7 9.37097ZM7.21649 8.69355H6.76488C6.57783 8.69355 6.42617 8.54189 6.42617 8.35484V8.34408C6.42617 6.3586 8.61197 6.54839 8.61197 5.31241C8.61197 4.74744 8.11066 4.17742 6.99068 4.17742C6.16807 4.17742 5.74127 4.44977 5.31941 4.98727C5.2091 5.12784 5.0074 5.15649 4.86079 5.05434L4.49008 4.79607C4.33131 4.68546 4.29645 4.46383 4.41542 4.31124C5.01454 3.54273 5.72538 3.04839 6.99068 3.04839C8.46746 3.04839 9.74101 3.88813 9.74101 5.31241C9.74101 7.21522 7.5552 7.1146 7.5552 8.34408V8.35484C7.5552 8.54189 7.40354 8.69355 7.21649 8.69355ZM7 0.903226C10.3482 0.903226 13.0968 3.61502 13.0968 7C13.0968 10.3671 10.3699 13.0968 7 13.0968C3.63424 13.0968 0.903226 10.3712 0.903226 7C0.903226 3.6354 3.62989 0.903226 7 0.903226ZM7 0C3.13428 0 0 3.13541 0 7C0 10.8668 3.13428 14 7 14C10.8657 14 14 10.8668 14 7C14 3.13541 10.8657 0 7 0Z" fill="white"/>
</svg>
