<svg width="50" height="50" viewBox="0 0 50 50" fill="none" xmlns="http://www.w3.org/2000/svg">
<path fill-rule="evenodd" clip-rule="evenodd" d="M50 25C50 38.8071 38.8071 50 25 50C11.1929 50 0 38.8071 0 25C0 11.1929 11.1929 0 25 0C38.8071 0 50 11.1929 50 25ZM25 15.5555C31.2401 15.5555 36.7171 18.8862 39.6538 23.8696C39.8805 24.2542 40 24.6925 40 25.1388C40 25.5852 39.8805 26.0235 39.6538 26.4081C36.7185 31.3891 31.2427 34.7222 25 34.7222C18.7599 34.7222 13.2829 31.3915 10.3462 26.4081C10.1195 26.0235 10 25.5853 10 25.1389C10 24.6925 10.1195 24.2542 10.3462 23.8696C13.2815 18.8885 18.7573 15.5555 25 15.5555ZM17.9167 25.1388C17.9167 29.0541 21.0853 32.2222 25 32.2222C28.9153 32.2222 32.0833 29.0535 32.0833 25.1388C32.0833 21.2235 28.9147 18.0555 25 18.0555C21.0847 18.0555 17.9167 21.2242 17.9167 25.1388ZM25 30.5555C27.9916 30.5555 30.4167 28.1304 30.4167 25.1388C30.4167 22.1473 27.9916 19.7222 25 19.7222C24.0777 19.7222 23.2094 19.953 22.4493 20.3595L22.451 20.3594C23.6828 20.3594 24.6814 21.358 24.6814 22.5898C24.6814 23.8216 23.6828 24.8202 22.451 24.8202C21.2192 24.8202 20.2206 23.8217 20.2206 22.5898L20.2206 22.5882C19.8141 23.3483 19.5833 24.2166 19.5833 25.1388C19.5833 28.1304 22.0084 30.5555 25 30.5555Z" fill="white"/>
</svg>
