<svg width="18" height="18" viewBox="0 0 18 18" fill="none" xmlns="http://www.w3.org/2000/svg">
<path opacity="0.2" d="M16.0714 0H1.92857C0.863839 0 0 0.863839 0 1.92857V16.0714C0 17.1362 0.863839 18 1.92857 18H16.0714C17.1362 18 18 17.1362 18 16.0714V1.92857C18 0.863839 17.1362 0 16.0714 0Z" fill="white"/>
<path opacity="0.8" d="M3.6965 10.6074C3.43132 10.6074 3.21436 10.3904 3.21436 10.1252V7.87521C3.21436 7.61003 3.43132 7.39307 3.6965 7.39307H14.3036C14.5688 7.39307 14.7858 7.61003 14.7858 7.87521V10.1252C14.7858 10.3904 14.5688 10.6074 14.3036 10.6074H3.6965Z" fill="white"/>
</svg>
