<svg width="27" height="29" viewBox="0 0 27 29" fill="none" xmlns="http://www.w3.org/2000/svg">
<path fill-rule="evenodd" clip-rule="evenodd" d="M22.187 0.796311L25.198 3.73494C25.7204 4.2448 26.0139 4.93632 26.0139 5.65738V20.8438C26.0139 22.3453 24.7667 23.5625 23.2282 23.5625H18.5853V26.2812C18.5853 27.7828 17.3382 29 15.7996 29H2.79963C1.2611 29 0.013916 27.7828 0.013916 26.2812V8.15625C0.013916 6.65471 1.2611 5.4375 2.79963 5.4375H7.44249V2.71875C7.44249 1.21721 8.68968 0 10.2282 0H20.2172C20.956 3.77043e-06 21.6646 0.286445 22.187 0.796311ZM20.8738 2.07794C20.7549 1.96182 20.6058 1.87965 20.4425 1.84033V5.43752H24.1282C24.0879 5.27818 24.0037 5.13263 23.8848 5.01662L20.8738 2.07794ZM16.7282 26.2812C16.7282 26.7809 16.3116 27.1875 15.7996 27.1875H2.79963C2.28764 27.1875 1.87106 26.7809 1.87106 26.2812V8.15625C1.87106 7.65657 2.28764 7.25 2.79963 7.25H7.44249V20.8438C7.44249 22.3453 8.68968 23.5625 10.2282 23.5625H16.7282V26.2812ZM23.2282 21.75C23.7402 21.75 24.1568 21.3434 24.1568 20.8438V7.25H19.9782C19.2121 7.25 18.5854 6.63828 18.5854 5.89062V1.8125H10.2282C9.71622 1.8125 9.29964 2.21907 9.29964 2.71875V20.8438C9.29964 21.3434 9.71622 21.75 10.2282 21.75H23.2282Z" fill="black"/>
</svg>
